<svg xmlns="http://www.w3.org/2000/svg" xmlns:xlink="http://www.w3.org/1999/xlink"><defs><symbol viewBox="0 0 31 31" fill="none" id="about">
<path d="M2.66669 21.5249V6.66386H0.666687V21.5249H2.66669ZM29.3334 21.5249V6.57773H27.3334V21.5249H29.3334ZM25.7412 3.0244C24.2234 3.07728 22.2395 3.23516 20.7132 3.69206L21.2868 5.60805C22.5524 5.22918 24.319 5.07516 25.8108 5.02318L25.7412 3.0244ZM20.7132 3.69206C19.3866 4.08925 17.8942 4.86504 16.731 5.5383L17.7327 7.2693C18.8667 6.61305 20.1932 5.93545 21.2868 5.60805L20.7132 3.69206ZM4.24854 5.0981C5.53653 5.17726 6.99526 5.3312 8.07821 5.61696L8.5885 3.68316C7.30742 3.3451 5.68691 3.18273 4.37123 3.10186L4.24854 5.0981ZM8.07821 5.61696C9.36103 5.95548 10.9398 6.69608 12.2422 7.38477L13.1771 5.61673C11.8498 4.91488 10.1036 4.08296 8.5885 3.68316L8.07821 5.61696ZM17.6406 27.6416C18.9619 26.9372 20.5984 26.1608 21.9219 25.8116L21.4115 23.8777C19.8511 24.2894 18.0436 25.1602 16.6998 25.8766L17.6406 27.6416ZM21.9219 25.8116C22.9924 25.529 24.431 25.3752 25.7094 25.2953L25.5844 23.2992C24.2776 23.3809 22.6788 23.5433 21.4115 23.8777L21.9219 25.8116ZM13.3003 25.8766C11.9564 25.1602 10.149 24.2894 8.5885 23.8777L8.07821 25.8116C9.40162 26.1608 11.0382 26.9372 12.3595 27.6416L13.3003 25.8766ZM8.5885 23.8777C7.32125 23.5433 5.72237 23.3809 4.41559 23.2992L4.29074 25.2953C5.56909 25.3752 7.00757 25.529 8.07821 25.8116L8.5885 23.8777ZM27.3334 21.5249C27.3334 22.4393 26.5756 23.2372 25.5844 23.2992L25.7094 25.2953C27.675 25.1724 29.3334 23.5732 29.3334 21.5249H27.3334ZM29.3334 6.57773C29.3334 4.62665 27.7796 2.9534 25.7412 3.0244L25.8108 5.02318C26.6306 4.99464 27.3334 5.66894 27.3334 6.57773H29.3334ZM0.666687 21.5249C0.666687 23.5732 2.32506 25.1724 4.29074 25.2953L4.41559 23.2992C3.42443 23.2372 2.66669 22.4393 2.66669 21.5249H0.666687ZM16.6998 25.8766C15.6434 26.4398 14.3567 26.4398 13.3003 25.8766L12.3595 27.6416C14.0039 28.5181 15.9962 28.5181 17.6406 27.6416L16.6998 25.8766ZM16.731 5.5383C15.6402 6.16958 14.2823 6.20108 13.1771 5.61673L12.2422 7.38477C13.9652 8.29582 16.0547 8.24046 17.7327 7.2693L16.731 5.5383ZM2.66669 6.66386C2.66669 5.73429 3.40326 5.04614 4.24854 5.0981L4.37123 3.10186C2.29358 2.97417 0.666687 4.665 0.666687 6.66386H2.66669Z" fill="#747399" />
<path d="M15.1649 7.07367V17.2696V27.621" stroke="#747399" stroke-width="2" />
</symbol><symbol viewBox="0 0 31 32" fill="none" id="add">
<path d="M15 29.3333C22.3638 29.3333 28.3334 23.3638 28.3334 16C28.3334 8.63619 22.3638 2.66666 15 2.66666C7.63622 2.66666 1.66669 8.63619 1.66669 16C1.66669 23.3638 7.63622 29.3333 15 29.3333Z" stroke="#747399" stroke-width="2" />
<path d="M19 16H15M15 16H11M15 16V12M15 16V20" stroke="#747399" stroke-width="2" stroke-linecap="round" />
</symbol><symbol viewBox="0 0 32 32" fill="none" id="add-user">
<path d="M15.2542 0C19.7111 0 23.3242 3.59297 23.3242 8.02513C23.3242 10.4672 22.2273 12.6545 20.4968 14.1264C20.8751 14.3133 21.2186 14.5016 21.5297 14.6903C22.1992 15.0964 22.8939 15.5999 23.6152 16.2004C24.0253 16.5418 24.0795 17.1492 23.7361 17.557C23.3928 17.9648 22.782 18.0187 22.372 17.6772C21.7213 17.1355 21.1038 16.688 20.5211 16.3346C19.994 16.0149 19.3376 15.6859 18.5536 15.3501C17.5446 15.8007 16.4287 16.0503 15.2542 16.0503C13.9552 16.0503 12.7279 15.7451 11.6409 15.2029L11.5827 15.2301C8.85212 16.2886 6.86016 17.8541 5.57385 19.9317C4.28323 22.0163 3.75602 24.3454 3.99112 26.9509C4.03892 27.4806 3.64584 27.9486 3.11314 27.9961C2.58045 28.0436 2.10987 27.6527 2.06207 27.123C1.79022 24.1103 2.41141 21.366 3.92458 18.9219C5.25555 16.7722 7.21102 15.0997 9.76871 13.9082C8.17897 12.4454 7.18419 10.3508 7.18419 8.02513C7.18419 3.59297 10.7972 0 15.2542 0ZM25.6154 17.7698C26.1473 17.7698 26.5784 18.2033 26.5784 18.7382L26.5784 21.1904L29.0316 21.1913C29.5664 21.1913 30 21.6225 30 22.1543C30 22.6862 29.5664 23.1173 29.0316 23.1173L26.5784 23.1168L26.5784 25.5705C26.5784 26.1053 26.1473 26.5389 25.6154 26.5389C25.0836 26.5389 24.6524 26.1053 24.6524 25.5705L24.652 23.1168L22.1992 23.1173C21.6644 23.1173 21.2308 22.6862 21.2308 22.1543C21.2308 21.6225 21.6644 21.1913 22.1992 21.1913L24.652 21.1904L24.6524 18.7382C24.6524 18.2033 25.0836 17.7698 25.6154 17.7698ZM15.2542 1.92603C11.8669 1.92603 9.12099 4.65669 9.12099 8.02513C9.12099 11.3936 11.8669 14.1242 15.2542 14.1242C18.6415 14.1242 21.3874 11.3936 21.3874 8.02513C21.3874 4.65669 18.6415 1.92603 15.2542 1.92603Z" fill="#747399" />
</symbol><symbol viewBox="0 0 32 32" fill="none" id="articles">
<path d="M4.62498 4.20831H2.20831V25.9583H23.9583V4.20831H4.62498ZM21.5416 6.62498V23.5416H4.62498V6.62498H21.5416ZM26.375 28.375H7.04165V30.7916H28.7916V9.04165H26.375V28.375ZM19.125 9.04165H7.04165V11.4583H19.125V9.04165ZM7.04165 13.875H19.125V16.2916H7.04165V13.875ZM15.5 18.7083H7.04165V21.125H15.5V18.7083Z" fill="#747399" />
</symbol><symbol viewBox="0 0 32 32" fill="none" id="helpdesk">
<g clip-path="url(#helpdesk_clip0_19_52)">
<path d="M25.3333 6.66666H6.66667C5.19391 6.66666 4 7.86056 4 9.33332V22.6667C4 24.1394 5.19391 25.3333 6.66667 25.3333H25.3333C26.8061 25.3333 28 24.1394 28 22.6667V9.33332C28 7.86056 26.8061 6.66666 25.3333 6.66666Z" stroke="#62618F" stroke-width="2" stroke-linecap="round" stroke-linejoin="round" />
<path d="M4 9.33334L16 17.3333L28 9.33334" stroke="#62618F" stroke-width="2" stroke-linecap="round" stroke-linejoin="round" />
</g>
<defs>

</defs>
</symbol><clipPath id="helpdesk_clip0_19_52">
<rect width="32" height="32" fill="white" />
</clipPath><symbol viewBox="0 0 32 32" fill="none" id="login">
<g clip-path="url(#login_clip0_28_183)">
<path d="M13.3333 21.3333V24C13.3333 24.7072 13.6143 25.3855 14.1144 25.8856C14.6145 26.3857 15.2928 26.6666 16 26.6666H25.3333C26.0406 26.6666 26.7189 26.3857 27.219 25.8856C27.719 25.3855 28 24.7072 28 24L28 7.99996C28 7.29271 27.719 6.61444 27.219 6.11434C26.7189 5.61424 26.0406 5.33329 25.3333 5.33329H16C15.2928 5.33329 14.6145 5.61424 14.1144 6.11434C13.6143 6.61444 13.3333 7.29271 13.3333 7.99996V10.6666" stroke="#62618F" stroke-width="2" stroke-linecap="round" stroke-linejoin="round" />
<path d="M4 16H22.6667M22.6667 16L18.6667 12M22.6667 16L18.6667 20" stroke="#62618F" stroke-width="2" stroke-linecap="round" stroke-linejoin="round" />
</g>
<defs>

</defs>
</symbol><clipPath id="login_clip0_28_183">
<rect width="32" height="32" fill="white" transform="matrix(-1 0 0 -1 32 32)" />
</clipPath><symbol viewBox="0 0 32 32" fill="none" id="logout">
<g clip-path="url(#logout_clip0_19_84)">
<path d="M18.6667 10.6667V8.00001C18.6667 7.29277 18.3857 6.61449 17.8856 6.11439C17.3855 5.61429 16.7072 5.33334 16 5.33334H6.66667C5.95942 5.33334 5.28115 5.61429 4.78105 6.11439C4.28095 6.61449 4 7.29277 4 8.00001V24C4 24.7073 4.28095 25.3855 4.78105 25.8856C5.28115 26.3857 5.95942 26.6667 6.66667 26.6667H16C16.7072 26.6667 17.3855 26.3857 17.8856 25.8856C18.3857 25.3855 18.6667 24.7073 18.6667 24V21.3333" stroke="#62618F" stroke-width="2" stroke-linecap="round" stroke-linejoin="round" />
<path d="M9.33331 16H28M28 16L24 12M28 16L24 20" stroke="#62618F" stroke-width="2" stroke-linecap="round" stroke-linejoin="round" />
</g>
<defs>

</defs>
</symbol><clipPath id="logout_clip0_19_84">
<rect width="32" height="32" fill="white" />
</clipPath><symbol viewBox="0 0 28 28" fill="none" id="password"><path clip-rule="evenodd" d="M22.6928 1.55018C22.3102 1.32626 21.8209 1.45915 21.6 1.84698L19.1533 6.14375C17.4864 5.36351 15.7609 4.96457 14.0142 4.96457C9.32104 4.96457 4.781 7.84644 1.11993 13.2641L1.10541 13.2854L1.09271 13.3038C0.970762 13.4784 0.967649 13.6837 1.0921 13.8563C3.79364 17.8691 6.97705 20.4972 10.3484 21.6018L8.39935 25.0222C8.1784 25.4101 8.30951 25.906 8.69214 26.1299L9.03857 26.3326C9.4212 26.5565 9.91046 26.4237 10.1314 26.0358L23.332 2.86058C23.553 2.47275 23.4219 1.97684 23.0392 1.75291L22.6928 1.55018ZM18.092 8.00705C16.7353 7.40974 15.3654 7.1186 14.0142 7.1186C10.6042 7.1186 7.07416 8.97311 3.93908 12.9239C3.63812 13.3032 3.63812 13.8561 3.93908 14.2354C6.28912 17.197 8.86102 18.9811 11.438 19.689L12.7855 17.3232C11.2462 16.8322 9.97333 15.4627 9.97333 13.5818C9.97333 11.2026 11.7969 9.27368 14.046 9.27368C15.0842 9.27368 16.0317 9.68468 16.7511 10.3612L18.092 8.00705ZM15.639 12.3137C15.2926 11.7767 14.7231 11.4277 14.046 11.4277C12.9205 11.4277 12 12.3906 12 13.5802C12 14.3664 12.8432 15.2851 13.9024 15.3624L15.639 12.3137Z" fill="#000000" fill-rule="evenodd" /><path d="M14.6873 22.1761C19.1311 21.9148 23.4056 19.0687 26.8864 13.931C26.9593 13.8234 27 13.7121 27 13.5797C27 13.4535 26.965 13.3481 26.8956 13.2455C25.5579 11.2677 24.1025 9.62885 22.5652 8.34557L21.506 10.2052C22.3887 10.9653 23.2531 11.87 24.0894 12.9239C24.3904 13.3032 24.3904 13.8561 24.0894 14.2354C21.5676 17.4135 18.7903 19.2357 16.0254 19.827L14.6873 22.1761Z" fill="#000000" /></symbol><symbol viewBox="0 0 28 28" fill="none" id="password-show"><path clip-rule="evenodd" d="M17.7469 15.4149C17.9855 14.8742 18.1188 14.2724 18.1188 14.0016C18.1188 11.6544 16.2952 9.7513 14.046 9.7513C11.7969 9.7513 9.97332 11.6544 9.97332 14.0016C9.97332 16.3487 12.0097 17.8886 14.046 17.8886C15.3486 17.8886 16.508 17.2515 17.2517 16.2595C17.4466 16.0001 17.6137 15.7168 17.7469 15.4149ZM14.046 15.7635C14.5551 15.7635 15.0205 15.5684 15.3784 15.2457C15.81 14.8566 16 14.2807 16 14.0016C16 12.828 15.1716 11.8764 14.046 11.8764C12.9205 11.8764 12 12.8264 12 14C12 14.8104 12.9205 15.7635 14.046 15.7635Z" fill="#000000" fill-rule="evenodd" /><path clip-rule="evenodd" d="M1.09212 14.2724C1.07621 14.2527 1.10803 14.2931 1.09212 14.2724C0.96764 14.1021 0.970773 13.8996 1.09268 13.7273C1.10161 13.7147 1.11071 13.7016 1.11993 13.6882C4.781 8.34319 9.32105 5.5 14.0142 5.5C18.7025 5.5 23.2385 8.33554 26.8956 13.6698C26.965 13.771 27 13.875 27 13.9995C27 14.1301 26.9593 14.2399 26.8863 14.3461C23.2302 19.6702 18.6982 22.5 14.0142 22.5C9.30912 22.5 4.75717 19.6433 1.09212 14.2724ZM3.93909 13.3525C3.6381 13.7267 3.6381 14.2722 3.93908 14.6465C7.07417 18.5443 10.6042 20.3749 14.0142 20.3749C17.4243 20.3749 20.9543 18.5443 24.0894 14.6465C24.3904 14.2722 24.3904 13.7267 24.0894 13.3525C20.9543 9.45475 17.4243 7.62513 14.0142 7.62513C10.6042 7.62513 7.07417 9.45475 3.93909 13.3525Z" fill="#000000" fill-rule="evenodd" /></symbol></defs></svg>