<svg width="31" height="31" viewBox="0 0 31 31" fill="none" xmlns="http://www.w3.org/2000/svg">
<path d="M2.66669 21.5249V6.66386H0.666687V21.5249H2.66669ZM29.3334 21.5249V6.57773H27.3334V21.5249H29.3334ZM25.7412 3.0244C24.2234 3.07728 22.2395 3.23516 20.7132 3.69206L21.2868 5.60805C22.5524 5.22918 24.319 5.07516 25.8108 5.02318L25.7412 3.0244ZM20.7132 3.69206C19.3866 4.08925 17.8942 4.86504 16.731 5.5383L17.7327 7.2693C18.8667 6.61305 20.1932 5.93545 21.2868 5.60805L20.7132 3.69206ZM4.24854 5.0981C5.53653 5.17726 6.99526 5.3312 8.07821 5.61696L8.5885 3.68316C7.30742 3.3451 5.68691 3.18273 4.37123 3.10186L4.24854 5.0981ZM8.07821 5.61696C9.36103 5.95548 10.9398 6.69608 12.2422 7.38477L13.1771 5.61673C11.8498 4.91488 10.1036 4.08296 8.5885 3.68316L8.07821 5.61696ZM17.6406 27.6416C18.9619 26.9372 20.5984 26.1608 21.9219 25.8116L21.4115 23.8777C19.8511 24.2894 18.0436 25.1602 16.6998 25.8766L17.6406 27.6416ZM21.9219 25.8116C22.9924 25.529 24.431 25.3752 25.7094 25.2953L25.5844 23.2992C24.2776 23.3809 22.6788 23.5433 21.4115 23.8777L21.9219 25.8116ZM13.3003 25.8766C11.9564 25.1602 10.149 24.2894 8.5885 23.8777L8.07821 25.8116C9.40162 26.1608 11.0382 26.9372 12.3595 27.6416L13.3003 25.8766ZM8.5885 23.8777C7.32125 23.5433 5.72237 23.3809 4.41559 23.2992L4.29074 25.2953C5.56909 25.3752 7.00757 25.529 8.07821 25.8116L8.5885 23.8777ZM27.3334 21.5249C27.3334 22.4393 26.5756 23.2372 25.5844 23.2992L25.7094 25.2953C27.675 25.1724 29.3334 23.5732 29.3334 21.5249H27.3334ZM29.3334 6.57773C29.3334 4.62665 27.7796 2.9534 25.7412 3.0244L25.8108 5.02318C26.6306 4.99464 27.3334 5.66894 27.3334 6.57773H29.3334ZM0.666687 21.5249C0.666687 23.5732 2.32506 25.1724 4.29074 25.2953L4.41559 23.2992C3.42443 23.2372 2.66669 22.4393 2.66669 21.5249H0.666687ZM16.6998 25.8766C15.6434 26.4398 14.3567 26.4398 13.3003 25.8766L12.3595 27.6416C14.0039 28.5181 15.9962 28.5181 17.6406 27.6416L16.6998 25.8766ZM16.731 5.5383C15.6402 6.16958 14.2823 6.20108 13.1771 5.61673L12.2422 7.38477C13.9652 8.29582 16.0547 8.24046 17.7327 7.2693L16.731 5.5383ZM2.66669 6.66386C2.66669 5.73429 3.40326 5.04614 4.24854 5.0981L4.37123 3.10186C2.29358 2.97417 0.666687 4.665 0.666687 6.66386H2.66669Z" fill="#747399"/>
<path d="M15.1649 7.07367V17.2696V27.621" stroke="#747399" stroke-width="2"/>
</svg>
