<svg width="32" height="32" viewBox="0 0 32 32" fill="none" xmlns="http://www.w3.org/2000/svg">
<path d="M15.2542 0C19.7111 0 23.3242 3.59297 23.3242 8.02513C23.3242 10.4672 22.2273 12.6545 20.4968 14.1264C20.8751 14.3133 21.2186 14.5016 21.5297 14.6903C22.1992 15.0964 22.8939 15.5999 23.6152 16.2004C24.0253 16.5418 24.0795 17.1492 23.7361 17.557C23.3928 17.9648 22.782 18.0187 22.372 17.6772C21.7213 17.1355 21.1038 16.688 20.5211 16.3346C19.994 16.0149 19.3376 15.6859 18.5536 15.3501C17.5446 15.8007 16.4287 16.0503 15.2542 16.0503C13.9552 16.0503 12.7279 15.7451 11.6409 15.2029L11.5827 15.2301C8.85212 16.2886 6.86016 17.8541 5.57385 19.9317C4.28323 22.0163 3.75602 24.3454 3.99112 26.9509C4.03892 27.4806 3.64584 27.9486 3.11314 27.9961C2.58045 28.0436 2.10987 27.6527 2.06207 27.123C1.79022 24.1103 2.41141 21.366 3.92458 18.9219C5.25555 16.7722 7.21102 15.0997 9.76871 13.9082C8.17897 12.4454 7.18419 10.3508 7.18419 8.02513C7.18419 3.59297 10.7972 0 15.2542 0ZM25.6154 17.7698C26.1473 17.7698 26.5784 18.2033 26.5784 18.7382L26.5784 21.1904L29.0316 21.1913C29.5664 21.1913 30 21.6225 30 22.1543C30 22.6862 29.5664 23.1173 29.0316 23.1173L26.5784 23.1168L26.5784 25.5705C26.5784 26.1053 26.1473 26.5389 25.6154 26.5389C25.0836 26.5389 24.6524 26.1053 24.6524 25.5705L24.652 23.1168L22.1992 23.1173C21.6644 23.1173 21.2308 22.6862 21.2308 22.1543C21.2308 21.6225 21.6644 21.1913 22.1992 21.1913L24.652 21.1904L24.6524 18.7382C24.6524 18.2033 25.0836 17.7698 25.6154 17.7698ZM15.2542 1.92603C11.8669 1.92603 9.12099 4.65669 9.12099 8.02513C9.12099 11.3936 11.8669 14.1242 15.2542 14.1242C18.6415 14.1242 21.3874 11.3936 21.3874 8.02513C21.3874 4.65669 18.6415 1.92603 15.2542 1.92603Z" fill="#747399"/>
</svg>
