<svg width="32" height="32" viewBox="0 0 32 32" fill="none" xmlns="http://www.w3.org/2000/svg">
<g clip-path="url(#clip0_28_183)">
<path d="M13.3333 21.3333V24C13.3333 24.7072 13.6143 25.3855 14.1144 25.8856C14.6145 26.3857 15.2928 26.6666 16 26.6666H25.3333C26.0406 26.6666 26.7189 26.3857 27.219 25.8856C27.719 25.3855 28 24.7072 28 24L28 7.99996C28 7.29271 27.719 6.61444 27.219 6.11434C26.7189 5.61424 26.0406 5.33329 25.3333 5.33329H16C15.2928 5.33329 14.6145 5.61424 14.1144 6.11434C13.6143 6.61444 13.3333 7.29271 13.3333 7.99996V10.6666" stroke="#62618F" stroke-width="2" stroke-linecap="round" stroke-linejoin="round"/>
<path d="M4 16H22.6667M22.6667 16L18.6667 12M22.6667 16L18.6667 20" stroke="#62618F" stroke-width="2" stroke-linecap="round" stroke-linejoin="round"/>
</g>
<defs>
<clipPath id="clip0_28_183">
<rect width="32" height="32" fill="white" transform="matrix(-1 0 0 -1 32 32)"/>
</clipPath>
</defs>
</svg>
